<mxfile host="app.diagrams.net" agent="Mozilla/5.0 (Macintosh; Intel Mac OS X 10_15_7) AppleWebKit/605.1.15 (KHTML, like Gecko) Version/18.0 Safari/605.1.15" version="26.2.12">
  <diagram name="第 1 页" id="CZvR31HhdzV-3xSVDwYB">
    <mxGraphModel dx="487" dy="414" grid="1" gridSize="10" guides="1" tooltips="1" connect="1" arrows="1" fold="1" page="1" pageScale="1" pageWidth="1169" pageHeight="827" math="0" shadow="0">
      <root>
        <mxCell id="0" />
        <mxCell id="1" parent="0" />
        <mxCell id="nTJaVaEbUzypS4ZbLXXl-1" value="用户交互层" style="shape=folder;fontStyle=1;tabWidth=110;tabHeight=30;tabPosition=left;html=1;boundedLbl=1;labelInHeader=1;container=1;collapsible=0;recursiveResize=0;whiteSpace=wrap;" vertex="1" parent="1">
          <mxGeometry x="79.5" y="30" width="875" height="180" as="geometry" />
        </mxCell>
        <mxCell id="nTJaVaEbUzypS4ZbLXXl-2" value="«entity» Student" style="html=1;whiteSpace=wrap;" vertex="1" parent="nTJaVaEbUzypS4ZbLXXl-1">
          <mxGeometry width="140" height="40" relative="1" as="geometry">
            <mxPoint x="20" y="50" as="offset" />
          </mxGeometry>
        </mxCell>
        <mxCell id="nTJaVaEbUzypS4ZbLXXl-3" value="«entity»Organizer" style="html=1;whiteSpace=wrap;" vertex="1" parent="nTJaVaEbUzypS4ZbLXXl-1">
          <mxGeometry x="195" y="49.999999999999886" width="140" height="40" as="geometry" />
        </mxCell>
        <mxCell id="nTJaVaEbUzypS4ZbLXXl-4" value="《entity》Auditor" style="html=1;whiteSpace=wrap;" vertex="1" parent="nTJaVaEbUzypS4ZbLXXl-1">
          <mxGeometry x="365" y="49.999999999999886" width="140" height="40" as="geometry" />
        </mxCell>
        <mxCell id="nTJaVaEbUzypS4ZbLXXl-5" value="&lt;p style=&quot;margin: 0px; font-style: normal; font-variant-caps: normal; font-stretch: normal; line-height: normal; font-size-adjust: none; font-kerning: auto; font-variant-alternates: normal; font-variant-ligatures: normal; font-variant-numeric: normal; font-variant-east-asian: normal; font-variant-position: normal; font-variant-emoji: normal; font-feature-settings: normal; font-optical-sizing: auto; font-variation-settings: normal;&quot;&gt;«entity» ApplicationInfo&lt;/p&gt;" style="html=1;whiteSpace=wrap;" vertex="1" parent="nTJaVaEbUzypS4ZbLXXl-1">
          <mxGeometry x="535" y="49.999999999999886" width="140" height="40" as="geometry" />
        </mxCell>
        <mxCell id="nTJaVaEbUzypS4ZbLXXl-6" value="&lt;p style=&quot;margin: 0px; font-style: normal; font-variant-caps: normal; font-stretch: normal; line-height: normal; font-size-adjust: none; font-kerning: auto; font-variant-alternates: normal; font-variant-ligatures: normal; font-variant-numeric: normal; font-variant-east-asian: normal; font-variant-position: normal; font-variant-emoji: normal; font-feature-settings: normal; font-optical-sizing: auto; font-variation-settings: normal;&quot;&gt;«entity» ActivityInfo&lt;/p&gt;" style="html=1;whiteSpace=wrap;" vertex="1" parent="nTJaVaEbUzypS4ZbLXXl-1">
          <mxGeometry x="705" y="49.999999999999886" width="140" height="40" as="geometry" />
        </mxCell>
        <mxCell id="nTJaVaEbUzypS4ZbLXXl-7" value="&lt;p style=&quot;margin: 0px; font-style: normal; font-variant-caps: normal; font-stretch: normal; line-height: normal; font-size-adjust: none; font-kerning: auto; font-variant-alternates: normal; font-variant-ligatures: normal; font-variant-numeric: normal; font-variant-east-asian: normal; font-variant-position: normal; font-variant-emoji: normal; font-feature-settings: normal; font-optical-sizing: auto; font-variation-settings: normal;&quot;&gt;«boundary» ActivityDisplayUl&lt;/p&gt;" style="html=1;whiteSpace=wrap;" vertex="1" parent="nTJaVaEbUzypS4ZbLXXl-1">
          <mxGeometry x="535" y="109.99999999999989" width="140" height="40" as="geometry" />
        </mxCell>
        <mxCell id="nTJaVaEbUzypS4ZbLXXl-8" value="&lt;p style=&quot;margin: 0px; font-style: normal; font-variant-caps: normal; font-stretch: normal; line-height: normal; font-size-adjust: none; font-kerning: auto; font-variant-alternates: normal; font-variant-ligatures: normal; font-variant-numeric: normal; font-variant-east-asian: normal; font-variant-position: normal; font-variant-emoji: normal; font-feature-settings: normal; font-optical-sizing: auto; font-variation-settings: normal;&quot;&gt;«boundary» OrganizerPanel&lt;/p&gt;" style="html=1;whiteSpace=wrap;" vertex="1" parent="nTJaVaEbUzypS4ZbLXXl-1">
          <mxGeometry x="25" y="109.99999999999989" width="140" height="40" as="geometry" />
        </mxCell>
        <mxCell id="nTJaVaEbUzypS4ZbLXXl-9" value="&lt;p style=&quot;margin: 0px; font-style: normal; font-variant-caps: normal; font-stretch: normal; line-height: normal; font-size-adjust: none; font-kerning: auto; font-variant-alternates: normal; font-variant-ligatures: normal; font-variant-numeric: normal; font-variant-east-asian: normal; font-variant-position: normal; font-variant-emoji: normal; font-feature-settings: normal; font-optical-sizing: auto; font-variation-settings: normal;&quot;&gt;«boundary» AuditorConsole&lt;/p&gt;" style="html=1;whiteSpace=wrap;" vertex="1" parent="nTJaVaEbUzypS4ZbLXXl-1">
          <mxGeometry x="195" y="109.99999999999989" width="140" height="40" as="geometry" />
        </mxCell>
        <mxCell id="nTJaVaEbUzypS4ZbLXXl-10" value="&lt;p style=&quot;margin: 0px; font-style: normal; font-variant-caps: normal; font-stretch: normal; line-height: normal; font-size-adjust: none; font-kerning: auto; font-variant-alternates: normal; font-variant-ligatures: normal; font-variant-numeric: normal; font-variant-east-asian: normal; font-variant-position: normal; font-variant-emoji: normal; font-feature-settings: normal; font-optical-sizing: auto; font-variation-settings: normal;&quot;&gt;«boundary» RegistrationUl&lt;/p&gt;" style="html=1;whiteSpace=wrap;" vertex="1" parent="nTJaVaEbUzypS4ZbLXXl-1">
          <mxGeometry x="365" y="109.99999999999989" width="140" height="40" as="geometry" />
        </mxCell>
        <mxCell id="nTJaVaEbUzypS4ZbLXXl-11" value="Package1" style="shape=folder;fontStyle=1;tabWidth=110;tabHeight=30;tabPosition=left;html=1;boundedLbl=1;labelInHeader=1;container=1;collapsible=0;recursiveResize=0;whiteSpace=wrap;" vertex="1" parent="1">
          <mxGeometry x="80" y="260" width="880" height="110" as="geometry" />
        </mxCell>
        <mxCell id="nTJaVaEbUzypS4ZbLXXl-12" value="&lt;p style=&quot;margin: 0px; font-style: normal; font-variant-caps: normal; font-stretch: normal; line-height: normal; font-size-adjust: none; font-kerning: auto; font-variant-alternates: normal; font-variant-ligatures: normal; font-variant-numeric: normal; font-variant-east-asian: normal; font-variant-position: normal; font-variant-emoji: normal; font-feature-settings: normal; font-optical-sizing: auto; font-variation-settings: normal;&quot;&gt;&amp;nbsp;«control» ActivityManager&lt;br&gt;&lt;/p&gt;" style="html=1;whiteSpace=wrap;" vertex="1" parent="nTJaVaEbUzypS4ZbLXXl-11">
          <mxGeometry x="25" y="49.999999999999886" width="140" height="40" as="geometry" />
        </mxCell>
        <mxCell id="nTJaVaEbUzypS4ZbLXXl-13" value="&lt;p style=&quot;margin: 0px; font-style: normal; font-variant-caps: normal; font-stretch: normal; line-height: normal; font-size-adjust: none; font-kerning: auto; font-variant-alternates: normal; font-variant-ligatures: normal; font-variant-numeric: normal; font-variant-east-asian: normal; font-variant-position: normal; font-variant-emoji: normal; font-feature-settings: normal; font-optical-sizing: auto; font-variation-settings: normal;&quot;&gt;&amp;nbsp;«control» ApplicationManager&lt;br&gt;&lt;/p&gt;" style="html=1;whiteSpace=wrap;" vertex="1" parent="nTJaVaEbUzypS4ZbLXXl-11">
          <mxGeometry x="200" y="49.999999999999886" width="140" height="40" as="geometry" />
        </mxCell>
        <mxCell id="nTJaVaEbUzypS4ZbLXXl-14" value="&lt;p style=&quot;margin: 0px; font-style: normal; font-variant-caps: normal; font-stretch: normal; line-height: normal; font-size-adjust: none; font-kerning: auto; font-variant-alternates: normal; font-variant-ligatures: normal; font-variant-numeric: normal; font-variant-east-asian: normal; font-variant-position: normal; font-variant-emoji: normal; font-feature-settings: normal; font-optical-sizing: auto; font-variation-settings: normal;&quot;&gt;&amp;nbsp;«control» ReviewManager&lt;br&gt;&lt;/p&gt;" style="html=1;whiteSpace=wrap;" vertex="1" parent="nTJaVaEbUzypS4ZbLXXl-11">
          <mxGeometry x="370" y="49.999999999999886" width="140" height="40" as="geometry" />
        </mxCell>
        <mxCell id="nTJaVaEbUzypS4ZbLXXl-15" value="&lt;p style=&quot;margin: 0px; font-style: normal; font-variant-caps: normal; font-stretch: normal; line-height: normal; font-size-adjust: none; font-kerning: auto; font-variant-alternates: normal; font-variant-ligatures: normal; font-variant-numeric: normal; font-variant-east-asian: normal; font-variant-position: normal; font-variant-emoji: normal; font-feature-settings: normal; font-optical-sizing: auto; font-variation-settings: normal;&quot;&gt;&amp;nbsp;«control» UserManager&lt;br&gt;&lt;/p&gt;" style="html=1;whiteSpace=wrap;" vertex="1" parent="nTJaVaEbUzypS4ZbLXXl-11">
          <mxGeometry x="540" y="50" width="140" height="40" as="geometry" />
        </mxCell>
        <mxCell id="nTJaVaEbUzypS4ZbLXXl-16" value="&lt;p style=&quot;margin: 0px; font-style: normal; font-variant-caps: normal; font-stretch: normal; line-height: normal; font-size-adjust: none; font-kerning: auto; font-variant-alternates: normal; font-variant-ligatures: normal; font-variant-numeric: normal; font-variant-east-asian: normal; font-variant-position: normal; font-variant-emoji: normal; font-feature-settings: normal; font-optical-sizing: auto; font-variation-settings: normal;&quot;&gt;&amp;nbsp;«control» Statistics Manager&lt;br&gt;&lt;/p&gt;" style="html=1;whiteSpace=wrap;" vertex="1" parent="nTJaVaEbUzypS4ZbLXXl-11">
          <mxGeometry x="710" y="49.999999999999886" width="140" height="40" as="geometry" />
        </mxCell>
        <mxCell id="nTJaVaEbUzypS4ZbLXXl-17" value="Package1" style="shape=folder;fontStyle=1;tabWidth=110;tabHeight=30;tabPosition=left;html=1;boundedLbl=1;labelInHeader=1;container=1;collapsible=0;recursiveResize=0;whiteSpace=wrap;" vertex="1" parent="1">
          <mxGeometry x="80" y="440" width="870" height="180" as="geometry" />
        </mxCell>
        <mxCell id="nTJaVaEbUzypS4ZbLXXl-18" value="&lt;p style=&quot;margin: 0px; font-style: normal; font-variant-caps: normal; font-stretch: normal; line-height: normal; font-size-adjust: none; font-kerning: auto; font-variant-alternates: normal; font-variant-ligatures: normal; font-variant-numeric: normal; font-variant-east-asian: normal; font-variant-position: normal; font-variant-emoji: normal; font-feature-settings: normal; font-optical-sizing: auto; font-variation-settings: normal;&quot;&gt;«boundary» DatabaseConnection&lt;br&gt;&lt;/p&gt;" style="html=1;whiteSpace=wrap;" vertex="1" parent="nTJaVaEbUzypS4ZbLXXl-17">
          <mxGeometry x="18" y="49.999999999999886" width="140" height="40" as="geometry" />
        </mxCell>
        <mxCell id="nTJaVaEbUzypS4ZbLXXl-19" value="&lt;p style=&quot;margin: 0px; font-style: normal; font-variant-caps: normal; font-stretch: normal; line-height: normal; font-size-adjust: none; font-kerning: auto; font-variant-alternates: normal; font-variant-ligatures: normal; font-variant-numeric: normal; font-variant-east-asian: normal; font-variant-position: normal; font-variant-emoji: normal; font-feature-settings: normal; font-optical-sizing: auto; font-variation-settings: normal;&quot;&gt;«boundary» ExternalServiceConnector&lt;br&gt;&lt;/p&gt;" style="html=1;whiteSpace=wrap;" vertex="1" parent="nTJaVaEbUzypS4ZbLXXl-17">
          <mxGeometry x="193" y="49.999999999999886" width="140" height="40" as="geometry" />
        </mxCell>
        <mxCell id="nTJaVaEbUzypS4ZbLXXl-20" value="&lt;p style=&quot;margin: 0px; font-style: normal; font-variant-caps: normal; font-stretch: normal; line-height: normal; font-size-adjust: none; font-kerning: auto; font-variant-alternates: normal; font-variant-ligatures: normal; font-variant-numeric: normal; font-variant-east-asian: normal; font-variant-position: normal; font-variant-emoji: normal; font-feature-settings: normal; font-optical-sizing: auto; font-variation-settings: normal;&quot;&gt;«entity» Activity&lt;br&gt;&lt;/p&gt;" style="html=1;whiteSpace=wrap;" vertex="1" parent="nTJaVaEbUzypS4ZbLXXl-17">
          <mxGeometry x="365" y="49.999999999999886" width="140" height="40" as="geometry" />
        </mxCell>
        <mxCell id="nTJaVaEbUzypS4ZbLXXl-21" value="&lt;p style=&quot;margin: 0px; font-style: normal; font-variant-caps: normal; font-stretch: normal; line-height: normal; font-size-adjust: none; font-kerning: auto; font-variant-alternates: normal; font-variant-ligatures: normal; font-variant-numeric: normal; font-variant-east-asian: normal; font-variant-position: normal; font-variant-emoji: normal; font-feature-settings: normal; font-optical-sizing: auto; font-variation-settings: normal;&quot;&gt;«entity» Application&lt;br&gt;&lt;/p&gt;" style="html=1;whiteSpace=wrap;" vertex="1" parent="nTJaVaEbUzypS4ZbLXXl-17">
          <mxGeometry x="538" y="49.999999999999886" width="140" height="40" as="geometry" />
        </mxCell>
        <mxCell id="nTJaVaEbUzypS4ZbLXXl-22" value="&lt;p style=&quot;margin: 0px; font-style: normal; font-variant-caps: normal; font-stretch: normal; line-height: normal; font-size-adjust: none; font-kerning: auto; font-variant-alternates: normal; font-variant-ligatures: normal; font-variant-numeric: normal; font-variant-east-asian: normal; font-variant-position: normal; font-variant-emoji: normal; font-feature-settings: normal; font-optical-sizing: auto; font-variation-settings: normal;&quot;&gt;«entity» ReviewRecord&lt;br&gt;&lt;/p&gt;" style="html=1;whiteSpace=wrap;" vertex="1" parent="nTJaVaEbUzypS4ZbLXXl-17">
          <mxGeometry x="708" y="49.999999999999886" width="140" height="40" as="geometry" />
        </mxCell>
        <mxCell id="nTJaVaEbUzypS4ZbLXXl-23" value="&lt;p style=&quot;margin: 0px; font-style: normal; font-variant-caps: normal; font-stretch: normal; line-height: normal; font-size-adjust: none; font-kerning: auto; font-variant-alternates: normal; font-variant-ligatures: normal; font-variant-numeric: normal; font-variant-east-asian: normal; font-variant-position: normal; font-variant-emoji: normal; font-feature-settings: normal; font-optical-sizing: auto; font-variation-settings: normal;&quot;&gt;«entity» User&lt;br&gt;&lt;/p&gt;" style="html=1;whiteSpace=wrap;" vertex="1" parent="nTJaVaEbUzypS4ZbLXXl-17">
          <mxGeometry x="18" y="109.99999999999989" width="140" height="40" as="geometry" />
        </mxCell>
        <mxCell id="nTJaVaEbUzypS4ZbLXXl-24" value="&lt;p style=&quot;margin: 0px; font-style: normal; font-variant-caps: normal; font-stretch: normal; line-height: normal; font-size-adjust: none; font-kerning: auto; font-variant-alternates: normal; font-variant-ligatures: normal; font-variant-numeric: normal; font-variant-east-asian: normal; font-variant-position: normal; font-variant-emoji: normal; font-feature-settings: normal; font-optical-sizing: auto; font-variation-settings: normal;&quot;&gt;«entity» Log&lt;br&gt;&lt;/p&gt;" style="html=1;whiteSpace=wrap;" vertex="1" parent="nTJaVaEbUzypS4ZbLXXl-17">
          <mxGeometry x="188" y="109.99999999999989" width="140" height="40" as="geometry" />
        </mxCell>
        <mxCell id="nTJaVaEbUzypS4ZbLXXl-25" style="edgeStyle=none;curved=1;rounded=0;orthogonalLoop=1;jettySize=auto;html=1;exitX=0.25;exitY=1;exitDx=0;exitDy=0;exitPerimeter=0;fontSize=12;startSize=8;endSize=8;" edge="1" parent="1" source="nTJaVaEbUzypS4ZbLXXl-1">
          <mxGeometry relative="1" as="geometry">
            <mxPoint x="298" y="290" as="targetPoint" />
          </mxGeometry>
        </mxCell>
        <mxCell id="nTJaVaEbUzypS4ZbLXXl-26" style="edgeStyle=none;curved=1;rounded=0;orthogonalLoop=1;jettySize=auto;html=1;exitX=0;exitY=0;exitDx=495;exitDy=30;exitPerimeter=0;entryX=0.566;entryY=0.989;entryDx=0;entryDy=0;entryPerimeter=0;fontSize=12;startSize=8;endSize=8;" edge="1" parent="1" source="nTJaVaEbUzypS4ZbLXXl-11" target="nTJaVaEbUzypS4ZbLXXl-1">
          <mxGeometry relative="1" as="geometry" />
        </mxCell>
        <mxCell id="nTJaVaEbUzypS4ZbLXXl-27" style="edgeStyle=none;curved=1;rounded=0;orthogonalLoop=1;jettySize=auto;html=1;exitX=0.25;exitY=1;exitDx=0;exitDy=0;exitPerimeter=0;fontSize=12;startSize=8;endSize=8;entryX=0.254;entryY=0.18;entryDx=0;entryDy=0;entryPerimeter=0;" edge="1" parent="1" target="nTJaVaEbUzypS4ZbLXXl-17">
          <mxGeometry relative="1" as="geometry">
            <mxPoint x="300" y="370" as="sourcePoint" />
            <mxPoint x="300" y="450" as="targetPoint" />
          </mxGeometry>
        </mxCell>
        <mxCell id="nTJaVaEbUzypS4ZbLXXl-28" style="edgeStyle=none;curved=1;rounded=0;orthogonalLoop=1;jettySize=auto;html=1;exitX=0;exitY=0;exitDx=495;exitDy=30;exitPerimeter=0;fontSize=12;startSize=8;endSize=8;entryX=0.556;entryY=1.004;entryDx=0;entryDy=0;entryPerimeter=0;" edge="1" parent="1" target="nTJaVaEbUzypS4ZbLXXl-11">
          <mxGeometry relative="1" as="geometry">
            <mxPoint x="570" y="472" as="sourcePoint" />
            <mxPoint x="570" y="380" as="targetPoint" />
          </mxGeometry>
        </mxCell>
        <mxCell id="nTJaVaEbUzypS4ZbLXXl-29" value="" style="html=1;verticalAlign=bottom;labelBackgroundColor=none;endArrow=open;endFill=0;dashed=1;rounded=0;fontSize=12;startSize=8;endSize=8;curved=1;exitX=0.25;exitY=1;exitDx=0;exitDy=0;exitPerimeter=0;entryX=0.928;entryY=0.471;entryDx=0;entryDy=0;entryPerimeter=0;" edge="1" parent="1" source="nTJaVaEbUzypS4ZbLXXl-17" target="nTJaVaEbUzypS4ZbLXXl-32">
          <mxGeometry width="160" relative="1" as="geometry">
            <mxPoint x="500" y="720" as="sourcePoint" />
            <mxPoint x="450" y="710" as="targetPoint" />
          </mxGeometry>
        </mxCell>
        <mxCell id="nTJaVaEbUzypS4ZbLXXl-30" value="Application System" style="html=1;rounded=0;" vertex="1" parent="1">
          <mxGeometry x="510" y="670" width="155" height="50" as="geometry" />
        </mxCell>
        <mxCell id="nTJaVaEbUzypS4ZbLXXl-31" value="" style="endArrow=none;html=1;rounded=0;align=center;verticalAlign=top;endFill=0;labelBackgroundColor=none;endSize=2;fontSize=12;curved=1;" edge="1" parent="1" source="nTJaVaEbUzypS4ZbLXXl-30" target="nTJaVaEbUzypS4ZbLXXl-32">
          <mxGeometry relative="1" as="geometry" />
        </mxCell>
        <mxCell id="nTJaVaEbUzypS4ZbLXXl-32" value="" style="ellipse;html=1;fontSize=11;align=center;fillColor=none;points=[];aspect=fixed;resizable=0;verticalAlign=bottom;labelPosition=center;verticalLabelPosition=top;flipH=1;" vertex="1" parent="1">
          <mxGeometry x="450" y="691" width="8" height="8" as="geometry" />
        </mxCell>
      </root>
    </mxGraphModel>
  </diagram>
</mxfile>
